<svg xmlns="http://www.w3.org/2000/svg" width="938" height="680" viewBox="0 0 938 680"><g fill-rule="evenodd" transform="translate(14)"><path fill-rule="nonzero" d="M489.514667,196.736 L448,156.288 L448,53.3333333 C448,23.936 424.085333,0 394.666667,0 L117.333333,0 C87.936,0 64,23.936 64,53.3333333 L64,156.330667 L22.464,196.736 C8.192,210.709333 0,230.165333 0,250.133333 L0,512 L512,512 L512,250.112 C512,230.144 503.808,210.688 489.514667,196.736 Z M474.624,212.010667 C475.584,212.949333 476.48,213.909333 477.354667,214.912 L448,244.266667 L448,186.090667 L474.624,212.032 L474.624,212.010667 Z M117.333333,21.3333333 L394.666667,21.3333333 C412.309333,21.3333333 426.666667,35.6906667 426.666667,53.3333333 L426.666667,265.578667 L308.8,383.466667 C280.618667,411.669333 231.424,411.690667 203.2,383.466667 L85.3333333,265.578667 L85.3333333,53.3333333 C85.3333333,35.6906667 99.6906667,21.3333333 117.333333,21.3333333 Z M64,186.090667 L64,244.245333 L34.6453333,214.890667 C35.52,213.888 36.416,212.928 37.3546667,212.010667 L64,186.090667 Z M490.666667,490.666667 L21.3333333,490.666667 L21.3333333,250.133333 C21.3333333,244.714667 22.1866667,239.338667 23.7866667,234.218667 L188.096,398.549333 C206.229333,416.682667 230.336,426.666667 255.978667,426.666667 C281.621333,426.666667 305.728,416.682667 323.861333,398.549333 L488.192,234.197333 C489.792,239.317333 490.645333,244.672 490.645333,250.112 L490.645333,490.666667 L490.666667,490.666667 Z M362.666667,202 L149.333333,202 L149.333333,180.666667 L362.666667,180.666667 L362.666667,202 Z M320,250 L320,271.333333 L149.333333,271.333333 L149.333333,250 L320,250 Z M383.609863,84.3212891 C393.351074,84.3212891 393.351074,84.3212891 397.990967,85.8081055 C402.630859,87.2949219 402.630859,87.2949219 405.732666,90.4223633 C408.834473,93.5498047 408.834473,93.5498047 410.885254,98.8818359 L410.885254,98.8818359 L391.095215,100.830078 L390.995079,100.508642 C390.21402,98.1384277 390.21402,98.1384277 388.531738,96.9848633 C386.070801,95.3442383 386.070801,95.3442383 382.584473,95.3442383 C379.046875,95.3442383 379.046875,95.3442383 377.431885,96.6003418 C375.816895,97.8564453 375.816895,97.8564453 375.816895,99.6508789 C375.816895,101.650391 375.816895,101.650391 377.867676,102.675781 C379.918457,103.701172 379.918457,103.701172 386.788574,104.521484 C397.196289,105.700684 397.196289,105.700684 402.271973,107.802734 C407.347656,109.904785 407.347656,109.904785 410.039307,113.80127 C412.730957,117.697754 412.730957,117.697754 412.730957,122.363281 C412.730957,127.080078 412.730957,127.080078 409.885498,131.540527 C407.040039,136.000977 407.040039,136.000977 400.91333,138.641357 C394.786621,141.281738 394.786621,141.281738 384.225098,141.281738 C369.305664,141.281738 369.305664,141.281738 362.973877,137.026367 C356.64209,132.770996 356.64209,132.770996 354.847656,124.926758 L354.847656,124.926758 L375.560547,122.978516 L375.698307,123.361262 C376.963713,126.753572 376.963713,126.753572 379.149414,128.259277 C381.456543,129.848633 381.456543,129.848633 385.301758,129.848633 C389.505859,129.848633 389.505859,129.848633 391.812988,128.054199 C393.607422,126.721191 393.607422,126.721191 393.607422,124.72168 C393.607422,122.46582 393.607422,122.46582 391.249023,121.235352 C389.557129,120.36377 389.557129,120.36377 382.276855,119.082031 C371.407715,117.185059 371.407715,117.185059 367.177979,115.570068 C362.948242,113.955078 362.948242,113.955078 360.051514,110.109863 C357.154785,106.264648 357.154785,106.264648 357.154785,101.342773 C357.154785,95.9594727 357.154785,95.9594727 360.282227,92.0629883 C363.409668,88.1665039 363.409668,88.1665039 368.895508,86.2438965 C374.381348,84.3212891 374.381348,84.3212891 383.609863,84.3212891 Z M217.547852,84.3212891 C229.237305,84.3212891 229.237305,84.3212891 236.004883,87.8588867 C242.772461,91.3964844 242.772461,91.3964844 246.310059,98.112793 C249.847656,104.829102 249.847656,104.829102 249.847656,115.595703 L249.847656,115.595703 L249.847656,117.954102 L208.011719,117.954102 L208.063764,118.386161 C208.669306,123.085513 208.669306,123.085513 210.729004,125.439453 C213.753906,128.977051 213.753906,128.977051 218.624512,128.977051 C221.700684,128.977051 221.700684,128.977051 224.469238,127.438965 C226.161133,126.464844 226.161133,126.464844 228.109375,124.003906 L228.109375,124.003906 L248.668457,125.900879 L248.36212,126.425285 C243.736659,134.218947 243.736659,134.218947 237.286621,137.667236 C230.621582,141.230469 230.621582,141.230469 218.163086,141.230469 C207.345215,141.230469 207.345215,141.230469 201.141602,138.179932 C194.937988,135.129395 194.937988,135.129395 190.862061,128.48999 C186.786133,121.850586 186.786133,121.850586 186.786133,112.878418 C186.786133,100.112305 186.786133,100.112305 194.963623,92.2167969 C203.141113,84.3212891 203.141113,84.3212891 217.547852,84.3212891 Z M125.160156,64.8388672 L153.460938,106.418457 L153.460938,64.8388672 L175.353027,64.8388672 L175.353027,140 L153.460938,140 L125.313965,98.7280273 L125.313965,140 L103.473145,140 L103.473145,64.8388672 L125.160156,64.8388672 Z M273.48291,85.5517578 L282.25,119.851074 L293.324219,85.5517578 L312.140137,85.5517578 L323.624512,119.851074 L332.391602,85.5517578 L352.437988,85.5517578 L332.391602,140 L313.832031,140 L302.809082,107.23877 L292.14502,140 L273.48291,140 L253.282715,85.5517578 L273.48291,85.5517578 Z M218.419434,96.6772461 C213.446289,96.6772461 213.446289,96.6772461 210.472656,100.625 C208.575684,103.085938 208.575684,103.085938 208.062988,107.956543 L208.062988,107.956543 L228.62207,107.956543 C228.006836,101.906738 228.006836,101.906738 225.366455,99.2919922 C222.726074,96.6772461 222.726074,96.6772461 218.419434,96.6772461 Z" transform="translate(209)"/><g transform="translate(0 512)"><text font-family="Arial-Black, Arial Black" font-size="148" font-weight="700">
                    <tspan x="122.833" y="163">Subscribe</tspan>
                </text><path fill-rule="nonzero" d="M86.125,67.875 L53.1826486,167.673805 L26.234,140.882 L7.25754182,159.970326 L0.912215987,166.352868 L-11.8528677,153.662216 L-5.50754182,147.279674 L13.469,128.191 L-13.4794549,101.400402 L86.125,67.875 Z"/></g></g></svg>